<svg width="41" height="40" viewBox="0 0 41 40" fill="none" xmlns="http://www.w3.org/2000/svg">
<path d="M5.41737 0C2.7911 0 0.643066 2.14245 0.643066 4.7619V35.2381C0.643066 37.8575 2.7911 40 5.41737 40H35.9729C38.5992 40 40.7472 37.8575 40.7472 35.2381V4.7619C40.7472 2.14245 38.5992 0 35.9729 0H5.41737ZM5.41737 1.90476H35.9729C37.5691 1.90476 38.8375 3.16993 38.8375 4.7619V35.2381C38.8375 36.8301 37.5691 38.0952 35.9729 38.0952H5.41737C3.82125 38.0952 2.55279 36.8301 2.55279 35.2381V4.7619C2.55279 3.16993 3.82125 1.90476 5.41737 1.90476ZM21.691 5.71429C21.4381 5.71431 21.1956 5.8144 21.0165 5.9926C20.8375 6.1708 20.7367 6.41255 20.7362 6.66481C20.7362 6.66481 20.7257 11.3079 20.7157 15.9617C20.7106 18.2886 20.7045 20.6179 20.7007 22.3717C20.697 24.1254 20.6952 25.2351 20.6952 25.3274C20.6952 27.0562 19.121 28.4691 17.327 28.4691C15.5474 28.4691 14.1267 27.0503 14.1267 25.2753C14.1267 23.5003 15.5474 22.0833 17.327 22.0833C17.3873 22.0833 17.5088 22.1031 17.7168 22.128C17.8509 22.144 17.987 22.1315 18.1159 22.0912C18.2448 22.0509 18.3637 21.9839 18.4647 21.8944C18.5657 21.8049 18.6465 21.695 18.7018 21.5721C18.7571 21.4492 18.7856 21.3159 18.7854 21.1812V17.1801C18.7854 16.9378 18.6928 16.7046 18.5265 16.528C18.3602 16.3514 18.1327 16.2447 17.8902 16.2295C17.7415 16.2202 17.5542 16.2016 17.327 16.2016C12.3145 16.2016 8.22974 20.2757 8.22974 25.2753C8.22974 30.2748 12.3145 34.349 17.327 34.349C22.3395 34.349 26.4243 30.2748 26.4243 25.2753V16.6574C27.8133 17.7654 29.5443 18.4673 31.456 18.4673C31.7167 18.4673 31.9647 18.4519 32.202 18.4301C32.4391 18.4082 32.6595 18.2988 32.8199 18.1233C32.9803 17.9478 33.0692 17.7189 33.0692 17.4814V13.0339C33.0693 12.7931 32.978 12.5612 32.8137 12.3848C32.6493 12.2085 32.4241 12.1008 32.1833 12.0833C29.1806 11.8685 26.787 9.53544 26.4747 6.56808C26.4502 6.33392 26.3397 6.11708 26.1644 5.95941C25.9891 5.80175 25.7615 5.71442 25.5254 5.71429H21.691ZM22.644 7.61905H24.8223C25.5163 10.7607 27.9776 13.1566 31.1595 13.7574V16.4862C29.1171 16.3828 27.3233 15.3666 26.2677 13.7649C26.1547 13.5935 25.9894 13.463 25.7961 13.3928C25.6029 13.3227 25.3921 13.3166 25.1951 13.3756C24.9982 13.4345 24.8256 13.5553 24.7029 13.7199C24.5803 13.8846 24.5143 14.0843 24.5146 14.2894V25.2753C24.5146 29.2453 21.3075 32.4442 17.327 32.4442C13.3467 32.4442 10.1395 29.2453 10.1395 25.2753C10.1395 21.4653 13.1194 18.4411 16.8757 18.1975V20.2697C14.2846 20.5102 12.217 22.6307 12.217 25.2753C12.217 28.0793 14.5157 30.3739 17.327 30.3739C20.124 30.3739 22.6049 28.1776 22.6049 25.3274C22.6049 25.374 22.6066 24.1291 22.6105 22.3754C22.6142 20.6216 22.6204 18.2923 22.6254 15.9654C22.6344 11.7874 22.6423 8.42782 22.644 7.61905Z" fill="white"/>
</svg>
