<svg width="40" height="40" viewBox="0 0 40 40" fill="none" xmlns="http://www.w3.org/2000/svg">
<path d="M4.7619 0C2.14245 0 0 2.14245 0 4.7619V35.2381C0 37.8575 2.14245 40 4.7619 40H35.2381C37.8575 40 40 37.8575 40 35.2381V4.7619C40 2.14245 37.8575 0 35.2381 0H4.7619ZM4.7619 1.90476H35.2381C36.8301 1.90476 38.0952 3.16993 38.0952 4.7619V35.2381C38.0952 36.8301 36.8301 38.0952 35.2381 38.0952H4.7619C3.16993 38.0952 1.90476 36.8301 1.90476 35.2381V4.7619C1.90476 3.16993 3.16993 1.90476 4.7619 1.90476ZM20.9933 5.71429C20.741 5.71431 20.4991 5.8144 20.3206 5.9926C20.142 6.1708 20.0414 6.41255 20.0409 6.66481C20.0409 6.66481 20.0305 11.3079 20.0205 15.9617C20.0154 18.2886 20.0093 20.6179 20.0056 22.3717C20.0018 24.1254 20 25.2351 20 25.3274C20 27.0562 18.4299 28.4691 16.6406 28.4691C14.8656 28.4691 13.4487 27.0503 13.4487 25.2753C13.4487 23.5003 14.8656 22.0833 16.6406 22.0833C16.7008 22.0833 16.822 22.1031 17.0294 22.128C17.1632 22.144 17.2988 22.1315 17.4274 22.0912C17.556 22.0509 17.6746 21.9839 17.7753 21.8944C17.8761 21.8049 17.9567 21.695 18.0118 21.5721C18.067 21.4492 18.0954 21.3159 18.0952 21.1812V17.1801C18.0952 16.9378 18.0029 16.7046 17.837 16.528C17.6711 16.3514 17.4442 16.2447 17.2024 16.2295C17.054 16.2202 16.8672 16.2016 16.6406 16.2016C11.6411 16.2016 7.56696 20.2757 7.56696 25.2753C7.56696 30.2748 11.6411 34.349 16.6406 34.349C21.64 34.349 25.7143 30.2748 25.7143 25.2753V16.6574C27.0996 17.7654 28.8262 18.4673 30.7329 18.4673C30.9929 18.4673 31.2403 18.4519 31.4769 18.4301C31.7134 18.4082 31.9332 18.2988 32.0933 18.1233C32.2533 17.9478 32.3419 17.7189 32.3419 17.4814V13.0339C32.342 12.7931 32.251 12.5612 32.087 12.3848C31.9231 12.2085 31.6985 12.1008 31.4583 12.0833C28.4634 11.8685 26.076 9.53544 25.7645 6.56808C25.7401 6.33392 25.6299 6.11708 25.455 5.95941C25.2802 5.80175 25.0531 5.71442 24.8177 5.71429H20.9933ZM21.9438 7.61905H24.1164C24.8086 10.7607 27.2636 13.1566 30.4371 13.7574V16.4862C28.4001 16.3828 26.6109 15.3666 25.558 13.7649C25.4454 13.5935 25.2805 13.463 25.0877 13.3928C24.895 13.3227 24.6848 13.3166 24.4883 13.3756C24.2919 13.4345 24.1197 13.5553 23.9974 13.7199C23.8751 13.8846 23.8092 14.0843 23.8095 14.2894V25.2753C23.8095 29.2453 20.6107 32.4442 16.6406 32.4442C12.6706 32.4442 9.47173 29.2453 9.47173 25.2753C9.47173 21.4653 12.4439 18.4411 16.1905 18.1975V20.2697C13.6061 20.5102 11.5439 22.6307 11.5439 25.2753C11.5439 28.0793 13.8366 30.3739 16.6406 30.3739C19.4304 30.3739 21.9048 28.1776 21.9048 25.3274C21.9048 25.374 21.9065 24.1291 21.9103 22.3754C21.9141 20.6216 21.9202 18.2923 21.9252 15.9654C21.9342 11.7874 21.9421 8.42782 21.9438 7.61905Z" fill="#202454"/>
<path d="M4.7619 0C2.14245 0 0 2.14245 0 4.7619V35.2381C0 37.8575 2.14245 40 4.7619 40H35.2381C37.8575 40 40 37.8575 40 35.2381V4.7619C40 2.14245 37.8575 0 35.2381 0H4.7619ZM4.7619 1.90476H35.2381C36.8301 1.90476 38.0952 3.16993 38.0952 4.7619V35.2381C38.0952 36.8301 36.8301 38.0952 35.2381 38.0952H4.7619C3.16993 38.0952 1.90476 36.8301 1.90476 35.2381V4.7619C1.90476 3.16993 3.16993 1.90476 4.7619 1.90476ZM20.9933 5.71429C20.741 5.71431 20.4991 5.8144 20.3206 5.9926C20.142 6.1708 20.0414 6.41255 20.0409 6.66481C20.0409 6.66481 20.0305 11.3079 20.0205 15.9617C20.0154 18.2886 20.0093 20.6179 20.0056 22.3717C20.0018 24.1254 20 25.2351 20 25.3274C20 27.0562 18.4299 28.4691 16.6406 28.4691C14.8656 28.4691 13.4487 27.0503 13.4487 25.2753C13.4487 23.5003 14.8656 22.0833 16.6406 22.0833C16.7008 22.0833 16.822 22.1031 17.0294 22.128C17.1632 22.144 17.2988 22.1315 17.4274 22.0912C17.556 22.0509 17.6746 21.9839 17.7753 21.8944C17.8761 21.8049 17.9567 21.695 18.0118 21.5721C18.067 21.4492 18.0954 21.3159 18.0952 21.1812V17.1801C18.0952 16.9378 18.0029 16.7046 17.837 16.528C17.6711 16.3514 17.4442 16.2447 17.2024 16.2295C17.054 16.2202 16.8672 16.2016 16.6406 16.2016C11.6411 16.2016 7.56696 20.2757 7.56696 25.2753C7.56696 30.2748 11.6411 34.349 16.6406 34.349C21.64 34.349 25.7143 30.2748 25.7143 25.2753V16.6574C27.0996 17.7654 28.8262 18.4673 30.7329 18.4673C30.9929 18.4673 31.2403 18.4519 31.4769 18.4301C31.7134 18.4082 31.9332 18.2988 32.0933 18.1233C32.2533 17.9478 32.3419 17.7189 32.3419 17.4814V13.0339C32.342 12.7931 32.251 12.5612 32.087 12.3848C31.9231 12.2085 31.6985 12.1008 31.4583 12.0833C28.4634 11.8685 26.076 9.53544 25.7645 6.56808C25.7401 6.33392 25.6299 6.11708 25.455 5.95941C25.2802 5.80175 25.0531 5.71442 24.8177 5.71429H20.9933ZM21.9438 7.61905H24.1164C24.8086 10.7607 27.2636 13.1566 30.4371 13.7574V16.4862C28.4001 16.3828 26.6109 15.3666 25.558 13.7649C25.4454 13.5935 25.2805 13.463 25.0877 13.3928C24.895 13.3227 24.6848 13.3166 24.4883 13.3756C24.2919 13.4345 24.1197 13.5553 23.9974 13.7199C23.8751 13.8846 23.8092 14.0843 23.8095 14.2894V25.2753C23.8095 29.2453 20.6107 32.4442 16.6406 32.4442C12.6706 32.4442 9.47173 29.2453 9.47173 25.2753C9.47173 21.4653 12.4439 18.4411 16.1905 18.1975V20.2697C13.6061 20.5102 11.5439 22.6307 11.5439 25.2753C11.5439 28.0793 13.8366 30.3739 16.6406 30.3739C19.4304 30.3739 21.9048 28.1776 21.9048 25.3274C21.9048 25.374 21.9065 24.1291 21.9103 22.3754C21.9141 20.6216 21.9202 18.2923 21.9252 15.9654C21.9342 11.7874 21.9421 8.42782 21.9438 7.61905Z" fill="black" fill-opacity="0.2"/>
</svg>
